<svg width="327" height="245" viewBox="0 0 327 245" fill="none" xmlns="http://www.w3.org/2000/svg">
<path d="M318.685 1.27467H28.4628C24.0445 1.27467 20.4628 4.85639 20.4628 9.27466V193.001C20.4628 197.419 24.0445 201.001 28.4628 201.001H318.685C323.103 201.001 326.685 197.419 326.685 193.001V9.27467C326.685 4.8564 323.103 1.27467 318.685 1.27467Z" fill="#EDEDF4"/>
<path d="M85.9212 169.08C100.232 169.08 111.833 167.241 111.833 164.972C111.833 162.704 100.232 160.865 85.9212 160.865C71.6107 160.865 60.0098 162.704 60.0098 164.972C60.0098 167.241 71.6107 169.08 85.9212 169.08Z" fill="#3B477B"/>
<path d="M90.0287 14.5458H81.8137V164.972H90.0287V14.5458Z" fill="#3B477B"/>
<path d="M85.9212 29.0833C91.6815 29.0833 96.3512 24.4137 96.3512 18.6534C96.3512 12.893 91.6815 8.22337 85.9212 8.22337C80.1609 8.22337 75.4912 12.893 75.4912 18.6534C75.4912 24.4137 80.1609 29.0833 85.9212 29.0833Z" fill="#3B477B"/>
<path d="M108.992 28.1347C108.992 28.1347 104.884 36.9852 101.725 55.3033L83.711 35.4058C83.711 35.4058 88.5507 33.4533 93.6897 31.2614C98.5273 29.198 103.732 28.1345 108.992 28.1347Z" fill="#6C63FF"/>
<path opacity="0.08" d="M108.992 28.1347C108.992 28.1347 104.884 36.9852 101.725 55.3033L83.711 35.4058C83.711 35.4058 88.5507 33.4533 93.6897 31.2614C98.5273 29.198 103.732 28.1345 108.992 28.1347Z" fill="black"/>
<path d="M63.4864 28.1347C63.4864 28.1347 69.1734 44.8825 69.4727 51.5181V59.42H102.655V51.205C98.6031 46.0825 94.0289 41.3956 89.0065 37.2201C81.8001 31.3401 72.7827 28.132 63.4818 28.1393L63.4864 28.1347Z" fill="#6C63FF"/>
<path d="M69.4865 59.42C69.4865 59.42 60.9537 69.5506 60.3229 81.5232C59.692 93.4958 65.6967 129.243 65.6967 129.243C65.6967 129.243 85.9212 136.51 106.146 129.243C106.146 129.243 112.468 92.584 111.833 80.8923C111.197 69.2007 99.0358 53.8712 99.0358 53.8712L69.4865 59.42Z" fill="#6C63FF"/>
<path opacity="0.08" d="M90.19 50.413C90.19 50.413 94.2975 50.0952 96.8255 51.3616C99.3536 52.6279 102.674 52.743 102.674 52.743" fill="black"/>
<path opacity="0.08" d="M90.19 52.2963C90.19 52.2963 94.2975 51.9786 96.8255 53.2449C99.3536 54.5113 102.674 54.6264 102.674 54.6264" fill="black"/>
<path opacity="0.08" d="M90.19 54.8382C90.19 54.8382 94.2975 54.5205 96.8255 55.7868C99.3536 57.0532 102.674 57.1683 102.674 57.1683" fill="black"/>
<path opacity="0.08" d="M71.2271 59.5813C71.2271 59.5813 68.6991 66.2168 69.0168 67.1654C69.3346 68.114 66.4888 73.8009 66.4888 73.8009" fill="black"/>
<path opacity="0.08" d="M73.1243 63.6887C73.1243 63.6887 70.5963 70.3243 70.914 71.2729C71.2317 72.2215 68.386 77.9085 68.386 77.9085" fill="black"/>
<path opacity="0.08" d="M101.564 59.5813C101.564 59.5813 104.092 66.2168 103.774 67.1654C103.456 68.114 106.302 73.8009 106.302 73.8009" fill="black"/>
<path opacity="0.08" d="M99.6667 63.6887C99.6667 63.6887 102.195 70.3243 101.877 71.2729C101.559 72.2215 104.405 77.9085 104.405 77.9085" fill="black"/>
<path d="M171.833 188.987C186.144 188.987 197.745 187.148 197.745 184.879C197.745 182.611 186.144 180.772 171.833 180.772C157.523 180.772 145.922 182.611 145.922 184.879C145.922 187.148 157.523 188.987 171.833 188.987Z" fill="#3B477B"/>
<path d="M175.941 34.4571H167.726V184.884H175.941V34.4571Z" fill="#3B477B"/>
<path d="M171.833 48.9947C177.594 48.9947 182.263 44.325 182.263 38.5647C182.263 32.8044 177.594 28.1347 171.833 28.1347C166.073 28.1347 161.403 32.8044 161.403 38.5647C161.403 44.325 166.073 48.9947 171.833 48.9947Z" fill="#3B477B"/>
<path d="M155.878 86.7589L118.27 138.9L128.7 143.012C128.7 143.012 126.803 144.909 128.069 145.858C128.069 145.858 132.494 149.965 144.186 150.596C144.186 150.596 147.663 145.858 154.616 152.175C161.569 158.493 170.102 153.442 170.102 153.442C170.102 153.442 176.42 148.077 183.686 153.142C190.953 158.208 200.121 150.614 200.121 150.614C200.121 150.614 204.859 143.661 214.972 146.189C225.084 148.717 225.102 139.236 225.102 139.236L186.882 85.511L155.878 86.7589Z" fill="#6C63FF"/>
<g opacity="0.08">
<path opacity="0.08" d="M215.69 146.327C218.453 146.885 220.387 146.512 221.764 145.696C219.717 145.472 217.647 145.687 215.69 146.327Z" fill="white"/>
<path opacity="0.08" d="M137.546 145.853C136.284 144.904 138.172 143.012 138.172 143.012L127.742 138.904L155.868 86.759L118.27 138.9L128.7 143.012C128.7 143.012 126.803 144.909 128.069 145.858C128.069 145.858 132.494 149.965 144.186 150.596C144.579 150.116 145.069 149.724 145.623 149.445C139.88 148.013 137.546 145.853 137.546 145.853Z" fill="white"/>
<path opacity="0.08" d="M164.093 152.171C157.139 145.848 153.662 150.591 153.662 150.591C153.271 150.591 152.884 150.545 152.511 150.518C153.252 151.017 153.954 151.571 154.611 152.175C159.294 156.435 164.691 155.528 167.717 154.478C166.382 153.929 165.155 153.148 164.093 152.171Z" fill="white"/>
<path opacity="0.08" d="M193.168 153.142C188.563 149.919 184.336 150.923 181.858 152.074C182.5 152.38 183.116 152.737 183.7 153.142C187.246 155.606 191.238 155.067 194.402 153.865C193.973 153.655 193.561 153.413 193.168 153.142Z" fill="white"/>
</g>
<path d="M190.009 91.0231H154.611C154.611 91.0231 152.401 64.163 149.237 60.0555C150.535 59.4926 151.865 59.0067 153.221 58.6004C155.338 57.942 157.49 57.4024 159.667 56.9841C167.175 55.5353 174.883 55.4651 182.415 56.7768C184.612 57.1638 186.786 57.6711 188.927 58.2964C190.627 58.7907 192.353 59.377 194.102 60.0555C194.102 60.0555 187.794 85.3361 190.009 91.0231Z" fill="#6C63FF"/>
<path opacity="0.08" d="M164.033 91.0231H159.327C159.267 85.0782 154.91 65.8576 153.22 58.5958C155.338 57.9374 157.49 57.3979 159.667 56.9795C160.031 64.6281 163.167 85.4006 164.033 91.0231Z" fill="white"/>
<path opacity="0.08" d="M188.94 58.2826C187.306 65.2958 182.825 84.9908 182.765 91.0093H178.059C178.929 85.3315 182.116 64.2321 182.424 56.763C184.623 57.1499 186.798 57.6572 188.94 58.2826Z" fill="white"/>
<path d="M270.119 170.028C284.43 170.028 296.031 168.189 296.031 165.921C296.031 163.652 284.43 161.813 270.119 161.813C255.809 161.813 244.208 163.652 244.208 165.921C244.208 168.189 255.809 170.028 270.119 170.028Z" fill="#3B477B"/>
<path d="M274.222 15.4944H266.007V165.921H274.222V15.4944Z" fill="#3B477B"/>
<path d="M270.119 30.0319C275.879 30.0319 280.549 25.3623 280.549 19.602C280.549 13.8416 275.879 9.17198 270.119 9.17198C264.359 9.17198 259.689 13.8416 259.689 19.602C259.689 25.3623 264.359 30.0319 270.119 30.0319Z" fill="#3B477B"/>
<path d="M288.225 69.4171C287.926 68.3995 287.627 67.4416 287.337 66.5805V54.8382L291.131 38.7213C282.281 25.7632 269.949 38.7213 269.949 38.7213C256.36 26.7118 249.407 38.7213 249.407 38.7213C250.355 40.9316 252.565 54.8382 252.565 54.8382V68.1922C247.537 78.7235 246.031 90.429 246.722 102.158L249.089 142.39C249.089 142.39 271.841 151.241 290.804 142.39L292.701 108.655C293.469 95.4159 291.955 82.1433 288.225 69.4171Z" fill="#6C63FF"/>
<g opacity="0.08">
<path opacity="0.08" d="M274.857 39.039C274.857 39.039 279.343 34.3375 284.841 33.4165C279.831 31.7956 274.862 34.7979 272.173 36.8977C273.107 37.5607 274.003 38.2756 274.857 39.039Z" fill="black"/>
<path opacity="0.08" d="M254.002 142.694L251.635 102.461C250.944 90.733 252.45 79.0228 257.479 68.4962V55.1421C257.479 55.1421 255.268 41.2355 254.32 39.0251C254.32 39.0251 256.862 34.6367 261.876 33.8217C253.726 31.5515 249.581 38.712 249.581 38.712C250.53 40.9223 252.74 54.829 252.74 54.829V68.183C247.712 78.7143 246.206 90.4198 246.897 102.148L249.264 142.381C255.938 144.738 262.934 146.055 270.009 146.286C264.548 145.737 259.174 144.531 254.002 142.694Z" fill="black"/>
</g>
<g opacity="0.08">
<path opacity="0.08" d="M265.376 38.7212C266.085 38.0085 266.844 37.3468 267.646 36.7412C263.042 33.4349 259.293 32.9744 256.434 33.6559C258.998 34.2177 261.978 35.7189 265.376 38.7212Z" fill="black"/>
<path opacity="0.08" d="M288.387 69.4172C288.087 68.3995 287.788 67.4417 287.498 66.5806V54.8382L291.292 38.7213C287.562 33.2599 283.215 32.4034 279.435 33.2369C281.857 33.8309 284.316 35.4472 286.549 38.7213L282.755 54.8382V66.5714C283.045 67.4325 283.34 68.3903 283.644 69.4079C287.374 82.1292 288.892 95.3969 288.129 108.632L286.232 142.367C280.706 144.95 274.844 146.023 269.327 146.249C276.133 146.521 283.823 145.701 290.97 142.367L292.895 108.641C293.65 95.4048 292.125 82.1371 288.387 69.4172Z" fill="black"/>
</g>
<path opacity="0.3" d="M102.199 1.27467L20.4628 77.9084V93.1919L122.46 1.27467H102.199Z" fill="white"/>
<path opacity="0.3" d="M20.4628 114.761V145.613L200.052 1.27468L173.574 0.749725L20.4628 114.761Z" fill="white"/>
<path d="M84.9997 241.089L85.0366 241.02L85.078 240.932L85.1056 240.859C85.1169 240.821 85.1261 240.782 85.1333 240.744C85.1333 240.707 85.1333 240.674 85.1333 240.638C85.1333 240.601 85.1333 240.578 85.1333 240.55C85.1333 240.523 85.1333 240.49 85.1333 240.463C85.1333 240.435 85.1333 240.407 85.1333 240.384C85.1333 240.361 85.1333 240.334 85.1333 240.311C85.2162 239.648 84.7465 238.897 84.1663 238.243C83.7722 237.796 83.2933 237.432 82.7573 237.172C82.2213 236.912 81.639 236.761 81.0442 236.728C74.4132 236.415 66.9671 225.055 66.9671 225.055L66.6678 225.299C65.8677 223.768 65.2021 222.17 64.6785 220.524H65.4153V220.358V220.192L64.393 209.601L67.156 177.887C68.0082 175.986 68.6491 173.997 69.067 171.956C69.2221 171.199 69.2932 170.427 69.2788 169.654C69.2788 169.599 69.2788 169.543 69.2788 169.488C69.2769 167.776 68.8631 166.089 68.0723 164.57L56.4819 142.241C56.8779 142.283 57.1266 142.287 57.1266 142.287C60.5434 137.411 58.3561 130.158 55.9201 124.932C56.4313 124.655 56.7766 124.471 56.7766 124.471C56.6599 124.425 56.5487 124.367 56.4451 124.296L56.7766 124.135C54.7873 123.412 53.1572 117.688 52.3974 114.465L53.5072 110.412C55.3566 110.69 57.156 111.234 58.8488 112.029C58.8488 112.029 58.6968 111.716 58.4344 111.154L58.8258 111.347C58.8258 111.347 58.6738 111.043 58.4206 110.495C57.0115 107.433 52.3836 96.6808 52.2685 87.2363C52.2768 85.9783 52.3877 84.7232 52.6 83.4833C52.8114 82.3012 52.9086 81.1014 52.8901 79.9007C52.9977 77.2131 52.3464 74.5495 51.0109 72.2147C49.6753 69.8799 47.7094 67.9683 45.3382 66.6986C45.3382 66.6986 40.8439 63.0147 39.8124 58.6401C39.4716 57.2034 38.4309 56.0246 37.16 55.0852C37.6205 51.6454 39.3611 48.4542 41.1248 45.9998C41.3228 45.963 41.5162 45.9261 41.7096 45.8801C41.9367 45.5731 42.1593 45.2907 42.3773 45.0328C44.9044 44.3207 47.1326 42.8085 48.7275 40.7229C50.3224 38.6373 51.1981 36.0908 51.2232 33.4654C51.215 31.5063 50.7263 29.5792 49.7998 27.8531C48.8733 26.1269 47.5374 24.6545 45.9092 23.565C46.2177 23.5281 46.5631 23.2933 46.9775 22.644C47.2394 22.1819 47.3911 21.6655 47.4207 21.1351C47.4502 20.6048 47.3569 20.0747 47.1479 19.5864C46.8182 18.869 46.3394 18.2301 45.7434 17.7122C44.8197 16.8401 43.7836 16.0952 42.6628 15.4973C40.0702 13.9777 37.3764 12.4212 34.374 12.0667C32.8477 11.9393 31.3122 11.9702 29.7922 12.1588L22.8389 12.7804C19.5326 13.0751 15.8395 13.5632 13.7904 16.1051C11.7412 18.647 12.0498 22.3631 9.99139 24.8543C8.47179 26.6963 5.97596 27.4607 4.10179 28.9527C0.666576 31.6879 -0.240585 36.5553 0.556054 40.7963C1.35269 45.0374 3.55381 48.887 5.42338 52.8012C7.29295 56.7153 8.89544 60.9656 8.36127 65.2343C7.90079 68.9181 5.89768 72.2889 5.18393 75.9452C4.65633 78.6534 4.84845 81.4527 5.74112 84.0635C5.88453 84.5983 6.15642 85.0899 6.53315 85.4956C6.59025 85.5466 6.6502 85.5942 6.71273 85.6384C6.7639 85.7062 6.81927 85.7708 6.87851 85.8318C7.56003 86.4764 8.60072 86.5593 9.55393 86.587C11.8564 86.6653 14.2232 86.6837 16.3323 87.577C17.0403 87.8773 17.6938 88.2928 18.2663 88.8065C18.7445 89.2656 19.118 89.8225 19.3612 90.4392C19.6044 91.056 19.7116 91.7179 19.6754 92.3799C19.482 94.406 17.7367 96.5242 18.8327 98.2418H19.0123C19.0594 98.3503 19.1148 98.455 19.1781 98.555C20.3354 98.7414 21.5126 98.7709 22.6777 98.6425C22.9412 100.571 23.095 102.513 23.1382 104.458C23.1382 106.563 22.8527 108.345 22.1896 109.395H22.314H22.4475H22.535C22.4427 109.639 22.3271 109.873 22.1896 110.095L23.548 109.993C21.8042 112.896 19.9058 115.703 17.8611 118.402C15.2835 121.575 13.8654 125.532 13.841 129.619C13.8296 130.22 13.8511 130.821 13.9055 131.42C14.214 134.698 15.3929 138.198 18.3906 140.984C18.3906 140.984 19.6616 144.065 19.7168 146.689C19.7176 147.262 19.6195 147.831 19.4267 148.37V172.2L15.2824 187.977C14.7523 191.131 14.4889 194.324 14.4949 197.522C14.4949 202.127 15.0659 207.506 17.3545 211.475L20.8128 227.924L21.1581 227.96V232.565C20.7345 232.197 20.4674 231.939 20.4674 231.939L19.4405 242.01H19.4728L19.4405 242.337C19.4405 242.337 25.3209 243.681 41.9168 244.013H42.7825H43.9015H44.4448H44.6935H45.3842H45.4303L46.1302 243.981H46.3374L46.7979 243.953H47.0236L47.4518 243.921H47.6498L48.161 243.87H48.2346L48.7826 243.806H48.9346L49.2984 243.751L49.4687 243.723L49.7957 243.668L49.9476 243.64L50.3252 243.562H50.3851L50.7949 243.465L50.8962 243.437L51.1771 243.364L51.2969 243.327L51.5409 243.253L51.6468 243.221L51.9185 243.124H51.9646L52.2547 243.005L52.3145 242.977L52.5171 242.88L52.5908 242.843L52.7566 242.751L52.8211 242.714L53.0007 242.604H53.0237L53.2079 242.466H53.2309L53.3598 242.351L53.3967 242.314L53.498 242.208L53.5256 242.176L53.6223 242.051C53.6543 242.004 53.6835 241.955 53.7098 241.904C53.7323 241.861 53.7523 241.816 53.7697 241.77V241.743C53.7825 241.703 53.7933 241.664 53.8019 241.623V241.595C53.8045 241.551 53.8045 241.506 53.8019 241.462C53.8112 241.378 53.8112 241.293 53.8019 241.209C53.9815 239.998 52.1441 238.828 50.5324 238.828C47.0742 238.828 35.6634 229.093 34.9727 228.421C34.6826 228.14 34.1576 228.228 33.5083 228.545C32.9926 228.085 32.417 227.495 31.8598 226.869C32.0532 226.643 32.1736 226.364 32.2052 226.068L32.1591 225.953C32.1802 225.88 32.1956 225.807 32.2052 225.732C32.2052 225.732 29.8567 220.026 29.76 217.296C29.7628 217.199 29.7705 217.102 29.783 217.006L30.0639 192.913C30.1271 189.774 31.1296 186.727 32.9419 184.164C34.3694 182.105 35.8384 178.919 36.0088 174.388L40.8024 156.921C47.2262 162.862 52.3145 170.736 52.8947 171.611C52.5217 173.232 50.4219 182.727 50.468 191.997C50.468 192.052 50.468 192.107 50.468 192.162C50.4413 194.983 50.6943 197.8 51.2232 200.571C52.3874 206.106 53.0044 211.741 53.0651 217.397C53.0651 219.303 52.973 220.376 52.973 220.376C52.973 220.482 52.973 220.542 52.973 220.542C52.973 220.648 52.973 220.708 52.973 220.708H53.6638V225.036L53.4888 224.903L49.1648 232.455L49.2569 232.542L49.1648 232.786C49.1648 232.786 56.4267 240.154 74.4086 242.185L75.4124 242.291L75.6979 242.318L76.3933 242.378H76.6604L77.5307 242.443L78.3227 242.484H78.5529H79.1055H80.0265H80.6251H80.8093H81.233H81.3987L81.9145 242.443H81.9928L82.4164 242.392H82.5592L82.8585 242.341L82.9874 242.318L83.3558 242.236H83.411L83.6873 242.153L83.7933 242.116L83.9867 242.042L84.0834 242.005L84.3182 241.89L84.3689 241.858L84.5254 241.761L84.5991 241.711L84.705 241.628L84.7649 241.572C84.8056 241.533 84.8441 241.492 84.88 241.448L84.926 241.388L84.9997 241.089Z" fill="url(#paint0_linear)"/>
<path d="M51.9047 118.443C51.9047 118.443 62.1919 133.708 56.551 142.006C56.551 142.006 48.2623 142.006 50.2469 133.045C51.4379 127.659 51.2095 122.056 49.5838 116.785L51.9047 118.443Z" fill="#F7C4A7"/>
<path d="M22.0377 223.314V235.259L32.6565 236.253L36.6397 230.267L35.645 228.609C35.645 228.609 30.9987 224.972 30.0041 221.652C29.0094 218.332 22.0377 223.314 22.0377 223.314Z" fill="#F7C4A7"/>
<path opacity="0.1" d="M26.684 233.601C26.684 233.601 33.8859 225.538 35.3134 226.966C35.9765 227.629 46.9269 237.253 50.247 237.253C53.567 237.253 57.8818 242.562 41.9582 242.231C26.0347 241.899 20.3891 240.573 20.3891 240.573L21.3838 230.617C21.3838 230.617 25.0262 234.264 26.684 233.601Z" fill="black"/>
<path d="M26.684 233.933C26.684 233.933 33.8859 225.869 35.3134 227.297C35.9765 227.96 46.9269 237.584 50.247 237.584C53.567 237.584 57.8818 242.894 41.9582 242.562C26.0347 242.231 20.3891 240.905 20.3891 240.905L21.3746 230.958C21.3746 230.958 25.0262 234.596 26.684 233.933Z" fill="#F3B5B7"/>
<path d="M53.2309 217.337V226.629L58.8718 231.276L65.1759 229.618L66.8336 225.966C66.8336 225.966 63.5135 221.32 62.5189 213.354L53.2309 217.337Z" fill="#F7C4A7"/>
<path opacity="0.1" d="M57.8772 227.274H61.8604L66.0047 223.788C66.0047 223.788 73.1514 235.019 79.5107 235.328C80.0851 235.363 80.6463 235.515 81.1606 235.773C81.675 236.031 82.1319 236.39 82.5039 236.829C84.1662 238.754 84.9306 241.577 73.1376 240.218C55.8879 238.247 48.9208 230.958 48.9208 230.958L53.0651 223.489L57.8772 227.274Z" fill="black"/>
<path d="M57.8772 227.624H61.8604L66.0047 224.138C66.0047 224.138 73.1515 235.369 79.5107 235.678C80.0851 235.713 80.6463 235.865 81.1607 236.123C81.675 236.381 82.1319 236.74 82.5039 237.179C84.1662 239.104 84.9306 241.927 73.1376 240.568C55.8787 238.579 48.9116 231.276 48.9116 231.276L53.0559 223.807L57.8772 227.624Z" fill="#F3B5B7"/>
<path opacity="0.1" d="M51.5732 112.802C51.5732 112.802 53.5624 123.421 56.2194 124.416C56.2194 124.416 50.5785 127.073 51.5732 129.725L46.9269 108.156L52.5678 108.819L51.5732 112.802Z" fill="black"/>
<path d="M51.5732 112.471C51.5732 112.471 53.5624 123.089 56.2194 124.084C56.2194 124.084 50.5785 126.741 51.5732 129.393L46.9269 107.824L52.5678 108.469L51.5732 112.471Z" fill="#FC6681"/>
<path opacity="0.1" d="M51.5732 112.471C51.5732 112.471 53.5624 123.089 56.2194 124.084C56.2194 124.084 50.5785 126.741 51.5732 129.393L46.9269 107.824L52.5678 108.469L51.5732 112.471Z" fill="black"/>
<path opacity="0.1" d="M47.2584 125.083L67.0593 164.367C68.1444 166.514 68.48 168.961 68.0125 171.321C67.6101 173.336 66.9926 175.303 66.1706 177.187L63.5136 208.712L64.4944 219.331H52.5678C52.5678 219.331 53.2309 211.042 50.9101 199.419C48.5892 187.797 52.5678 170.869 52.5678 170.869C52.5678 170.869 45.2691 158.924 36.9712 152.947C28.6733 146.97 47.2584 125.083 47.2584 125.083Z" fill="black"/>
<path d="M47.2584 124.747L67.0593 164.031C68.1444 166.177 68.48 168.625 68.0125 170.984C67.6101 173 66.9926 174.967 66.1706 176.851L63.5228 208.394L64.4944 218.985H52.5678C52.5678 218.985 53.2309 210.697 50.9101 199.074C48.5892 187.451 52.5678 170.524 52.5678 170.524C52.5678 170.524 45.2691 158.579 36.9712 152.602C28.6733 146.625 47.2584 124.747 47.2584 124.747Z" fill="#575988"/>
<path opacity="0.05" d="M47.2584 124.918L67.0593 164.202C68.1444 166.348 68.48 168.796 68.0125 171.155C67.6101 173.171 66.9926 175.137 66.1706 177.021L63.5136 208.546L64.4944 219.165H52.5678C52.5678 219.165 53.2309 210.876 50.9101 199.254C48.5892 187.631 52.5678 170.704 52.5678 170.704C52.5678 170.704 45.2691 158.759 36.9712 152.781C28.6733 146.804 47.2584 124.918 47.2584 124.918Z" fill="black"/>
<path opacity="0.1" d="M26.0209 107.493C26.0209 107.493 21.9134 114.773 18.8788 118.692C16.0752 122.24 14.718 126.718 15.0798 131.226C15.3745 134.45 16.5073 137.926 19.3853 140.68C19.3853 140.68 21.3746 145.658 20.3799 148.315V171.878L16.3967 187.474C16.3967 187.474 13.7398 202.076 18.386 210.374L21.7061 226.634C21.7061 226.634 32.3249 227.96 32.6564 224.645C32.6564 224.645 29.9995 218.009 30.354 215.684L30.6211 191.863C30.6759 188.768 31.6365 185.756 33.384 183.201C34.7655 181.17 36.1469 178.016 36.3311 173.531L53.9032 107.493H26.0209Z" fill="black"/>
<path d="M26.0209 107.161C26.0209 107.161 21.9134 114.442 18.8788 118.36C16.0752 121.909 14.718 126.387 15.0798 130.895C15.3745 134.118 16.5073 137.595 19.3853 140.348C19.3853 140.348 21.3746 145.326 20.3799 147.983V171.555L16.3967 187.152C16.3967 187.152 13.7398 201.754 18.386 210.052L21.7061 226.311C21.7061 226.311 32.3249 227.638 32.6564 224.322C32.6564 224.322 29.9995 217.687 30.354 215.361L30.6211 191.54C30.6759 188.445 31.6365 185.434 33.384 182.879C34.7655 180.848 36.1469 177.694 36.3311 173.208L53.9032 107.161H26.0209Z" fill="#575988"/>
<path d="M49.9154 131.387C49.9154 131.387 52.2178 146.321 43.9291 150.967C43.9291 150.967 40.609 148.665 45.2553 141.011L45.5869 130.724L49.9154 131.387Z" fill="#F7C4A7"/>
<path opacity="0.1" d="M73.1469 239.905C57.4628 238.095 50.2792 231.902 49.1004 230.788L48.9208 231.276C48.9208 231.276 55.8879 238.574 73.1469 240.568C81.9743 241.586 83.7656 240.26 83.411 238.726C83.0795 239.937 80.662 240.771 73.1469 239.905Z" fill="black"/>
<path opacity="0.1" d="M41.9306 241.549C27.1951 241.24 21.2502 240.08 20.4582 239.91L20.3615 240.886C20.3615 240.886 26.0024 242.212 41.9306 242.544C51.8448 242.751 53.9032 240.771 53.2677 239.247C52.7198 240.527 49.7819 241.729 41.9306 241.549Z" fill="black"/>
<path opacity="0.1" d="M21.8719 140.846C21.8719 140.846 29.8383 140.846 32.1591 138.856C34.48 136.867 40.1255 138.856 40.1255 138.856" fill="black"/>
<path opacity="0.1" d="M19.8826 210.535C15.2363 202.247 17.8933 187.635 17.8933 187.635L21.8765 172.039V148.476C22.8712 145.819 20.8819 140.841 20.8819 140.841C18.0038 138.078 16.871 134.629 16.5763 131.387C16.2146 126.879 17.5717 122.402 20.3753 118.853C23.4099 114.934 27.5174 107.654 27.5174 107.654H53.9769L54.0644 107.322H26.1866C26.1866 107.322 22.0791 114.603 19.0445 118.521C16.2316 122.068 14.866 126.548 15.2225 131.06C15.5172 134.284 16.65 137.76 19.528 140.514C19.528 140.514 21.5173 145.492 20.5227 148.149V171.712L16.5395 187.309C16.5395 187.309 13.8825 201.91 18.5288 210.208L21.8489 226.468C21.8489 226.468 22.3508 226.533 23.1336 226.592L19.8826 210.535Z" fill="black"/>
<path d="M45.2691 42.1178C45.2691 42.1178 37.6343 49.0665 37.3258 57.0513C37.0172 65.0361 24.3815 55.3936 24.3815 55.3936C24.3815 55.3936 34.0057 51.0789 33.3426 38.4708L45.2691 42.1178Z" fill="#F7C4A7"/>
<path opacity="0.1" d="M31.6618 53.7312C31.6618 53.7312 21.3746 49.748 19.3807 66.6754L21.6831 88.9122C21.6831 88.9122 25.6663 105.835 23.0093 110.15C23.0093 110.15 50.2239 107.847 58.1857 112.139C58.1857 112.139 50.2193 95.5616 52.1994 83.9298C54.1795 72.298 45.2323 68.0016 45.2323 68.0016C45.2323 68.0016 40.9175 64.35 39.9229 60.0353C38.9282 55.7205 31.6618 53.7312 31.6618 53.7312Z" fill="black"/>
<path d="M31.6618 53.0681C31.6618 53.0681 21.3746 49.0665 19.3668 66.0077L21.264 84.1693C21.5173 86.5868 21.8857 88.9952 22.3554 91.3805C23.3592 96.4872 24.9525 106.337 23.0185 109.482C23.0185 109.482 50.2331 107.18 58.1949 111.471C58.1949 111.471 50.2285 94.894 52.2086 83.2621C54.1887 71.6303 45.2415 67.3339 45.2415 67.3339C45.2415 67.3339 40.9267 63.6823 39.9321 59.3675C38.9374 55.0528 31.6618 53.0681 31.6618 53.0681Z" fill="#FC6681"/>
<path opacity="0.1" d="M29.6725 74.9688L41.6175 119.106C41.6175 119.106 46.2638 129.725 44.2745 132.714C44.2745 132.714 49.5839 135.371 51.9093 132.714C54.2348 130.057 46.9315 99.5264 46.9315 99.5264L42.6167 74.9688H29.6725Z" fill="black"/>
<path d="M30.004 74.6373L41.9306 118.775C41.9306 118.775 46.5769 129.393 44.5876 132.382C44.5876 132.382 49.897 135.039 52.2224 132.382C54.5479 129.725 47.2446 99.1949 47.2446 99.1949L42.9299 74.6373H30.004Z" fill="#FC6681"/>
<path opacity="0.1" d="M42.7779 82.1064C42.7779 82.1064 46.098 91.7305 47.7557 92.7251C49.4135 93.7198 48.4188 101.014 48.4188 101.014" fill="black"/>
<path opacity="0.1" d="M33.1538 42.9467C34.9635 44.0519 36.6857 47.091 38.9605 47.091C39.9083 47.0908 40.8528 46.9779 41.774 46.7549C42.8216 45.33 43.9911 43.9988 45.2691 42.7763L33.3242 39.1248C33.4439 41.4824 33.6419 41.1416 33.1538 42.9467Z" fill="black"/>
<path d="M38.9651 46.4279C45.5621 46.4279 50.9101 41.08 50.9101 34.483C50.9101 27.886 45.5621 22.5381 38.9651 22.5381C32.3681 22.5381 27.0201 27.886 27.0201 34.483C27.0201 41.08 32.3681 46.4279 38.9651 46.4279Z" fill="#F7C4A7"/>
<g opacity="0.1">
<path opacity="0.1" d="M24.7637 109.353C26.6057 106.079 25.0216 96.4228 24.0316 91.3943C23.5711 89.009 23.1935 86.6006 22.9402 84.1831L21.043 66.0216C22.2863 55.4626 26.7576 53.0405 29.9442 52.7135C26.928 52.4142 20.8634 53.4365 19.3853 66.0216L21.2825 84.1831C21.5357 86.6006 21.9041 89.009 22.3738 91.3943C23.3777 96.5011 24.9709 106.351 23.0369 109.496C23.0507 109.482 23.6678 109.431 24.7637 109.353Z" fill="black"/>
<path opacity="0.1" d="M39.2966 108.86C46.6644 108.897 54.4926 109.468 58.2087 111.476C58.2087 111.476 58.066 111.177 57.8219 110.633C53.3276 109.183 45.9506 108.828 39.2966 108.86Z" fill="black"/>
</g>
<path opacity="0.1" d="M42.9621 31.7063C41.9306 34.3311 40.0887 36.4816 38.1961 38.5583C37.1416 39.728 36.0548 40.9114 35.4332 42.3527C34.9329 43.6538 34.6227 45.0201 34.5122 46.4096C33.7754 52.0966 33.0893 58.1566 35.5759 63.3186C36.2713 64.7645 37.206 66.1091 37.6665 67.6425C38.5046 70.4515 37.6665 73.4769 36.5522 76.1984C35.0299 79.9844 33.0538 83.5717 30.6672 86.8816C29.2857 88.7926 27.7293 90.699 27.2365 93.0014C26.905 94.5441 27.0293 96.2893 26.0531 97.528C24.7499 99.1811 22.2449 99.0522 20.1589 98.7667C19.109 97.0537 20.7805 94.9723 20.9647 92.9738C21.172 90.7773 19.4451 88.7742 17.4236 87.9085C15.4021 87.0428 13.1227 86.9875 10.917 86.9323C9.99598 86.9 9.00594 86.8217 8.35205 86.1862C7.98861 85.7813 7.728 85.2949 7.59225 84.768C6.76196 82.2105 6.58778 79.4854 7.08571 76.843C7.77184 73.2282 9.69668 69.9081 10.1341 66.2519C10.6453 62.0154 9.10725 57.8112 7.31136 53.9431C5.51547 50.0751 3.40184 46.2715 2.63744 42.0764C1.87303 37.8814 2.74335 33.074 6.04042 30.3663C7.84092 28.8882 10.2308 28.1284 11.6906 26.3141C13.666 23.8597 13.399 20.1574 15.3376 17.6754C17.2763 15.1933 20.8634 14.6822 24.0178 14.3875L30.6902 13.7751C32.1486 13.5884 33.6228 13.5576 35.0878 13.683C37.9705 14.0375 40.5584 15.5709 43.045 17.0767C44.6245 18.0299 46.296 19.0891 47.019 20.7882C47.2191 21.2721 47.3081 21.7947 47.2794 22.3175C47.2507 22.8403 47.105 23.35 46.8532 23.809C45.6283 25.7799 45.0481 23.8781 44.0903 24.3248C42.6582 24.9464 43.7311 29.7262 42.9621 31.7063Z" fill="black"/>
<path d="M42.6305 31.3747C41.6221 33.9857 39.7433 36.15 37.8691 38.2221C36.8146 39.3918 35.7279 40.5752 35.1062 42.0165C34.6059 43.3175 34.2957 44.6839 34.1852 46.0734C33.4485 51.7603 32.7623 57.8203 35.249 62.9823C35.9443 64.4283 36.8791 65.7729 37.3396 67.3063C38.1776 70.1152 37.3396 73.1406 36.2252 75.8621C34.7029 79.6481 32.7268 83.2354 30.3402 86.5453C28.9587 88.4563 27.4023 90.3627 26.9096 92.6651C26.578 94.2077 26.7024 95.953 25.7261 97.1917C24.423 98.8448 21.9179 98.7159 19.8319 98.4304C18.782 96.7174 20.4536 94.636 20.6378 92.6375C20.845 90.441 19.1182 88.4379 17.0967 87.5722C15.0751 86.7065 12.7957 86.6512 10.59 86.5959C9.66905 86.5637 8.679 86.4854 8.02511 85.85C7.66167 85.4451 7.40106 84.9586 7.26532 84.4317C6.43503 81.8742 6.26084 79.1491 6.75878 76.5067C7.4449 72.8919 9.36973 69.5719 9.80719 65.9156C10.3183 61.6792 8.7803 57.4749 6.98441 53.6069C5.18852 49.7388 3.07491 45.9352 2.3105 41.7402C1.5461 37.5452 2.41642 32.7378 5.71349 30.0301C7.51398 28.552 9.90389 27.7922 11.3636 25.9778C13.3391 23.5235 13.072 19.8212 15.0107 17.3392C16.9493 14.8572 20.5365 14.346 23.6908 14.0513L30.3632 13.4389C31.8217 13.2522 33.2959 13.2214 34.7608 13.3468C37.6435 13.7014 40.2314 15.2348 42.718 16.7405C44.2975 17.6937 45.969 18.7529 46.692 20.452C46.8921 20.9359 46.9811 21.4585 46.9524 21.9813C46.9237 22.5041 46.7781 23.0138 46.5262 23.4728C45.3013 25.4437 44.7211 23.5419 43.7633 23.9886C42.3266 24.6148 43.3995 29.3808 42.6305 31.3747Z" fill="#965D7B"/>
<defs>
<linearGradient id="paint0_linear" x1="42.7364" y1="244.054" x2="42.7364" y2="12.0805" gradientUnits="userSpaceOnUse">
<stop stop-color="#808080" stop-opacity="0.25"/>
<stop offset="0.54" stop-color="#808080" stop-opacity="0.12"/>
<stop offset="1" stop-color="#808080" stop-opacity="0.1"/>
</linearGradient>
</defs>
</svg>
