<svg width="24" height="24" viewBox="0 0 24 24" fill="none" xmlns="http://www.w3.org/2000/svg">
<path d="M8.04715 18.5814C6.17289 18.0954 4.73129 17.1458 2.33486 14.8187C1.37007 13.8818 0.520685 13.0031 0.447328 12.8661C0.353196 12.6902 0.396971 12.5152 0.596102 12.2715L0.878252 11.9263L2.76783 13.7876C4.92406 15.9115 5.74009 16.418 7.194 16.5347C8.60193 16.6477 9.36711 16.3716 10.3425 15.3986C11.2707 14.4727 11.6585 13.582 11.6572 12.379C11.6561 11.3849 11.4327 10.6314 10.9796 10.0928L10.6072 9.65031L10.0641 9.99913C9.76537 10.191 9.26495 10.4288 8.95205 10.5275L8.38314 10.7071L7.36943 9.70114C6.81188 9.14787 6.40468 8.65409 6.46453 8.60385C6.52438 8.55361 6.8489 8.43423 7.18568 8.33857C7.93967 8.12439 9.20242 7.01685 9.62964 6.195C9.99786 5.48666 10.0642 4.20708 9.76892 3.50784C9.52442 2.92882 9.05964 2.71497 8.04575 2.71497C6.96739 2.71497 5.84323 3.16389 4.939 3.95561L4.18893 4.61235L3.17043 3.57941L2.15193 2.54647L2.85636 1.90277C4.33132 0.554966 6.60814 0.187219 8.34192 1.01676C9.49627 1.56907 11.0242 3.09118 11.5874 4.24996C12.2722 5.65884 12.2415 7.58378 11.5179 8.59989L11.2481 8.97891L11.9458 9.73769L12.6435 10.4965L14.7232 8.92697L16.8029 7.35746L16.8096 5.03621L16.8163 2.71497H15.8703H14.9242L13.9489 1.64646L12.9736 0.577952L17.2033 0.538807L21.4329 0.499662L22.5711 1.60732L23.7093 2.71497H21.3682H19.027V10.7067V18.6984L17.9217 17.6004L16.8163 16.5024V13.809C16.8163 12.3277 16.7787 11.1157 16.7327 11.1157C16.6868 11.1157 16.0001 11.6156 15.2067 12.2266C13.9469 13.1968 13.7732 13.384 13.8347 13.7055C13.9448 14.2816 13.5867 15.8341 13.1632 16.6164C12.2633 18.2788 10.0937 19.1122 8.04715 18.5814Z" fill="white"/>
</svg>
