<svg width="470" height="470" viewBox="0 0 470 470" fill="none" xmlns="http://www.w3.org/2000/svg">
<path d="M270 187V439.559L345 376.627V306H320V365.744L295 386.722V212H320V281H345V187H270Z" fill="#fff"/>
<path d="M124 187V374.528L149 395.505V212H174V416.483L199 437.46V212H224V458.438L235.751 468.298L249 457.18V187H124Z" fill="#fff"/>
<path d="M236.841 37.7423C245.939 36.5937 252.974 28.8395 252.974 19.4444C252.974 9.25773 244.703 1 234.5 1C224.297 1 216.026 9.25773 216.026 19.4444C216.026 28.8395 223.061 36.5937 232.159 37.7423C231.478 61.397 219.875 104.89 195.243 109.361C170.169 113.913 145.845 79.524 137.819 63.8534C143.115 61.2031 146.75 55.7339 146.75 49.4167C146.75 40.5035 139.513 33.2778 130.586 33.2778C121.658 33.2778 114.421 40.5035 114.421 49.4167C114.421 58.3299 121.658 65.5556 130.586 65.5556C132.429 65.5556 134.201 65.2474 135.852 64.6797C143.104 81.5129 146.29 117.315 130.586 123.194C116.952 128.299 92.1377 114.428 82.5471 100.802C85.1162 98.2912 86.7105 94.7898 86.7105 90.9167C86.7105 83.2767 80.5073 77.0833 72.8553 77.0833C65.2032 77.0833 59 83.2767 59 90.9167C59 98.5566 65.2032 104.75 72.8553 104.75C74.8868 104.75 76.8163 104.313 78.5546 103.529C98.8631 124.011 115.903 147.064 121.349 167H347.651C353.097 147.064 370.137 124.011 390.445 103.529C392.184 104.313 394.113 104.75 396.145 104.75C403.797 104.75 410 98.5566 410 90.9167C410 83.2767 403.797 77.0833 396.145 77.0833C388.493 77.0833 382.289 83.2767 382.289 90.9167C382.289 94.7898 383.884 98.2912 386.453 100.802C376.862 114.428 352.048 128.299 338.414 123.194C322.71 117.315 325.896 81.5129 333.148 64.6797C334.799 65.2474 336.571 65.5556 338.414 65.5556C347.342 65.5556 354.579 58.3299 354.579 49.4167C354.579 40.5035 347.342 33.2778 338.414 33.2778C329.487 33.2778 322.25 40.5035 322.25 49.4167C322.25 55.7339 325.885 61.2031 331.181 63.8534C323.155 79.524 298.831 113.913 273.757 109.361C249.125 104.89 237.522 61.397 236.841 37.7423Z" fill="#fff"/>
</svg>
