<svg width="260" height="193" viewBox="0 0 260 193" fill="none" xmlns="http://www.w3.org/2000/svg">
<g clip-path="url(#clip0)">
<path d="M187.099 114.396L189.144 113.132C189.338 113.009 189.53 112.877 189.727 112.754C185.34 111.999 181.343 109.767 178.396 106.428C175.449 103.089 173.73 98.8431 173.523 94.3928C173.373 91.3322 173.951 88.2796 175.21 85.4863C176.382 82.8728 178.113 80.5485 180.28 78.6772C182.447 76.8059 184.998 75.4332 187.753 74.656L187.652 82.7129L192.074 73.9434C192.092 73.9406 192.11 73.9406 192.129 73.9434C194.691 73.8237 197.252 74.2103 199.665 75.0812C202.078 75.9521 204.297 77.2902 206.193 79.0191C208.09 80.748 209.627 82.8339 210.718 85.1576C211.809 87.4814 212.432 89.9975 212.552 92.5622C212.568 92.9349 212.552 93.3021 212.552 93.6584C214.091 91.9017 215.487 90.019 216.413 87.9555C218.285 83.7762 218.329 79.0434 218.173 73.2912C217.877 61.8908 217.387 50.4055 216.747 38.9531C212.13 38.4399 207.847 36.2956 204.667 32.9056C201.488 29.5156 199.621 25.1019 199.401 20.4576C199.373 19.8575 199.382 19.2683 199.401 18.6818C199.401 18.5366 199.401 18.3886 199.423 18.2433C199.461 17.676 199.513 17.1142 199.601 16.5607C199.601 16.4675 199.634 16.3798 199.65 16.2866C199.73 15.8171 199.826 15.353 199.938 14.8945C199.981 14.7246 200.022 14.5519 200.069 14.382C200.206 13.8832 200.343 13.3927 200.532 12.9076C200.589 12.7459 200.658 12.5897 200.718 12.4308C200.858 12.0745 201.008 11.7237 201.167 11.3757C201.252 11.1921 201.334 11.0112 201.424 10.8276C201.446 10.781 201.465 10.7344 201.49 10.6878C203.552 6.61231 206.975 3.38867 211.165 1.57726C215.355 -0.23415 220.046 -0.518794 224.424 0.772806L224.293 11.2579L228.674 2.59796C232.267 4.65666 235.109 7.81138 236.784 11.6013C238.459 15.3913 238.879 19.618 237.983 23.664H238.005C237.975 23.8037 237.931 23.938 237.898 24.075C237.838 24.3327 237.772 24.5875 237.701 24.8424C237.608 25.1685 237.504 25.4891 237.397 25.8098C237.315 26.0482 237.236 26.2921 237.145 26.5278C237.014 26.8731 236.871 27.2101 236.713 27.5472C236.625 27.7445 236.546 27.9446 236.439 28.1392C236.189 28.6434 235.915 29.1367 235.617 29.619C235.516 29.7862 235.401 29.9451 235.294 30.1123C235.086 30.4357 234.875 30.7563 234.648 31.0687C234.509 31.2606 234.358 31.4442 234.21 31.6333C233.997 31.9073 233.777 32.1814 233.55 32.4307C233.389 32.6144 233.224 32.7952 233.055 32.9788C232.816 33.231 232.57 33.4749 232.315 33.716C232.148 33.8777 231.979 34.0394 231.803 34.1929C231.516 34.4477 231.215 34.6916 230.911 34.9301C230.757 35.0506 230.61 35.1767 230.451 35.2918C229.989 35.6353 229.512 35.9577 229.019 36.2592C228.926 36.314 228.827 36.3606 228.745 36.4154C228.334 36.6593 227.923 36.8868 227.483 37.1005C227.299 37.1909 227.108 37.2704 226.919 37.3554C226.565 37.5143 226.209 37.6678 225.845 37.8076C225.634 37.887 225.418 37.961 225.202 38.035C224.843 38.1583 224.479 38.2707 224.107 38.3721C223.888 38.4324 223.671 38.4927 223.449 38.5447C223.05 38.6407 222.642 38.7201 222.231 38.7886C222.204 38.7886 222.179 38.7886 222.152 38.8051C222.422 43.6356 222.662 48.4689 222.872 53.3049C224.036 50.912 225.677 48.7825 227.693 47.047C229.71 45.3115 232.059 44.0066 234.597 43.2124C237.136 42.4182 239.809 42.1514 242.454 42.4284C245.099 42.7054 247.66 43.5203 249.979 44.8232L246.526 54.2915L253.629 47.465C257.431 50.9529 259.695 55.8077 259.926 60.9646C260.017 62.774 259.85 64.5871 259.431 66.3496C258.538 70.1636 256.521 73.6213 253.642 76.2739C250.762 78.9266 247.152 80.6518 243.28 81.2258C239.409 81.7998 235.454 81.196 231.93 79.4928C228.406 77.7897 225.474 75.0657 223.515 71.6743C223.515 72.1649 223.551 72.6581 223.564 73.1487C223.693 78.2241 223.855 84.5381 221.327 90.178C219.616 94.0009 216.859 97.1059 214.134 99.8875C212.363 101.699 210.526 103.45 208.642 105.146C206.79 107.636 204.372 109.648 201.589 111.017C198.495 113.403 195.291 115.637 191.978 117.72L189.965 119.019C188.106 120.172 186.201 121.356 184.33 122.581C184.659 122.548 184.985 122.513 185.319 122.499C189.458 122.305 193.552 123.433 197.009 125.72C200.467 128.007 203.108 131.335 204.551 135.223L192.345 145.168L205.761 142.052C205.758 145.358 204.917 148.61 203.317 151.502C201.718 154.395 199.412 156.834 196.615 158.593C193.818 160.351 190.621 161.372 187.323 161.558C184.025 161.745 180.734 161.092 177.756 159.66C178.058 160.038 178.361 160.414 178.663 160.789C179.262 161.537 179.859 162.28 180.442 163.017C188.383 173.083 190.595 182.642 186.661 189.928L181.88 187.341C185.713 180.249 179.963 171.173 176.176 166.388C175.604 165.664 175.018 164.935 174.427 164.195C169.353 157.892 163.603 150.734 163.748 141.962C163.954 128.753 176.793 120.786 187.099 114.396Z" fill="#F2F2F2"/>
<path d="M124.72 192.833C193.6 192.833 249.439 190.257 249.439 187.078C249.439 183.9 193.6 181.323 124.72 181.323C55.8389 181.323 0 183.9 0 187.078C0 190.257 55.8389 192.833 124.72 192.833Z" fill="#3F3D56"/>
<path d="M225.478 184.933C226.3 183.423 225.369 181.573 224.306 180.224C223.244 178.876 221.949 177.484 221.976 175.76C222.015 173.294 224.629 171.839 226.721 170.531C228.27 169.56 229.7 168.41 230.979 167.103C231.516 166.6 231.96 166.007 232.291 165.349C232.721 164.384 232.71 163.288 232.682 162.23C232.591 158.712 232.418 155.197 232.162 151.685" stroke="#3F3D56" stroke-width="4" stroke-miterlimit="10"/>
<path d="M236.135 151.499C236.104 150.855 235.913 150.229 235.578 149.678C235.243 149.128 234.776 148.67 234.218 148.347L233.359 150.052L233.383 147.991C232.795 147.815 232.173 147.782 231.57 147.897C230.967 148.011 230.4 148.268 229.917 148.648C229.434 149.027 229.049 149.517 228.795 150.076C228.54 150.635 228.424 151.247 228.455 151.861C228.503 152.878 228.952 153.835 229.705 154.52C230.078 154.86 230.514 155.123 230.988 155.293C231.462 155.464 231.965 155.54 232.469 155.516C232.972 155.493 233.466 155.37 233.922 155.155C234.378 154.94 234.787 154.638 235.126 154.265C235.465 153.892 235.728 153.455 235.899 152.981C236.069 152.506 236.145 152.003 236.121 151.499H236.135Z" fill="#57B793"/>
<path d="M229.282 177.533C228.879 178.316 228.22 178.936 227.416 179.29C226.611 179.644 225.709 179.71 224.861 179.478C224.013 179.245 223.271 178.728 222.758 178.013C222.246 177.298 221.995 176.428 222.047 175.55C222.099 174.672 222.451 173.838 223.044 173.189C223.637 172.539 224.435 172.114 225.305 171.983C226.174 171.852 227.062 172.025 227.819 172.472C228.577 172.918 229.158 173.612 229.465 174.437L227.066 176.391L229.706 175.777C229.706 176.388 229.561 176.99 229.282 177.533Z" fill="#57B793"/>
<path d="M227.384 170.055C226.88 170.079 226.376 170.003 225.901 169.832C225.426 169.661 224.989 169.398 224.616 169.057C224.243 168.717 223.941 168.306 223.727 167.848C223.513 167.391 223.392 166.895 223.37 166.391C223.339 165.789 223.453 165.188 223.701 164.639C223.931 164.125 224.271 163.668 224.697 163.3C225.123 162.931 225.624 162.661 226.165 162.507L226.146 164.094L227.017 162.368C228.035 162.32 229.031 162.679 229.785 163.366C230.539 164.053 230.989 165.012 231.036 166.032C231.084 167.051 230.725 168.047 230.038 168.802C229.352 169.556 228.394 170.007 227.376 170.055H227.384Z" fill="#57B793"/>
<path d="M236.713 163.831C235.696 163.879 234.702 163.521 233.949 162.835C233.196 162.149 232.747 161.193 232.699 160.175C232.651 159.158 233.009 158.163 233.694 157.409C234.379 156.656 235.335 156.206 236.351 156.158C237.07 156.122 237.784 156.291 238.41 156.645L237.731 158.509L239.128 157.166C239.877 157.852 240.324 158.807 240.371 159.822C240.388 160.177 240.355 160.533 240.272 160.879C240.08 161.692 239.629 162.42 238.987 162.953C238.344 163.485 237.546 163.794 236.713 163.831Z" fill="#57B793"/>
<path opacity="0.1" d="M235.617 152.513C234.73 152.611 233.868 152.888 232.978 152.943C232.088 152.998 231.111 152.784 230.546 152.091C230.243 151.718 230.092 151.247 229.835 150.841C229.592 150.462 229.26 150.149 228.868 149.928C228.636 150.414 228.509 150.942 228.494 151.48C228.479 152.017 228.578 152.552 228.783 153.049C228.988 153.546 229.295 153.994 229.685 154.365C230.074 154.735 230.537 155.02 231.043 155.2C231.549 155.38 232.088 155.451 232.623 155.409C233.159 155.368 233.68 155.214 234.152 154.957C234.625 154.701 235.038 154.349 235.365 153.922C235.693 153.496 235.927 153.005 236.053 152.483C235.905 152.488 235.76 152.499 235.617 152.513Z" fill="black"/>
<path opacity="0.1" d="M236.713 163.831C236.05 163.865 235.39 163.725 234.797 163.427C234.204 163.129 233.699 162.682 233.33 162.129C232.962 161.577 232.743 160.938 232.695 160.276C232.647 159.613 232.772 158.95 233.057 158.35C233.362 158.556 233.625 158.819 233.829 159.126C234.103 159.539 234.268 160.016 234.591 160.397C235.188 161.101 236.212 161.332 237.14 161.288C238.068 161.244 238.961 160.984 239.878 160.899C240.004 160.899 240.135 160.877 240.264 160.874C240.074 161.686 239.624 162.414 238.983 162.948C238.342 163.482 237.545 163.792 236.713 163.831Z" fill="black"/>
<path opacity="0.1" d="M227.384 170.055C226.88 170.079 226.376 170.003 225.901 169.832C225.426 169.661 224.989 169.398 224.616 169.057C224.243 168.717 223.941 168.306 223.727 167.848C223.513 167.391 223.392 166.895 223.37 166.391C223.339 165.789 223.453 165.188 223.701 164.639C224.02 164.848 224.298 165.113 224.523 165.42C224.821 165.842 225.007 166.327 225.344 166.717C225.993 167.44 227.083 167.695 228.066 167.67C229.049 167.646 229.933 167.415 230.88 167.344C230.647 168.101 230.185 168.767 229.56 169.252C228.934 169.737 228.174 170.017 227.384 170.055Z" fill="black"/>
<path opacity="0.1" d="M229.281 177.533C229.075 177.994 228.779 178.409 228.412 178.755C228.045 179.101 227.614 179.372 227.142 179.551C226.671 179.73 226.168 179.815 225.664 179.8C225.16 179.785 224.664 179.671 224.204 179.464C223.744 179.257 223.329 178.961 222.983 178.594C222.637 178.227 222.367 177.795 222.188 177.323C222.008 176.851 221.924 176.348 221.939 175.843C221.954 175.339 222.068 174.842 222.275 174.382C222.59 174.592 222.874 174.845 223.118 175.135C223.482 175.582 223.723 176.086 224.148 176.506C224.933 177.276 226.201 177.602 227.329 177.624C227.981 177.632 228.633 177.602 229.281 177.533Z" fill="black"/>
<path d="M219.684 183.192C219.684 183.192 222.715 183.099 223.63 182.447C224.544 181.795 228.285 181.016 228.523 182.063C228.761 183.11 233.082 187.27 229.656 187.287C226.231 187.303 221.7 186.739 220.788 186.19C219.876 185.642 219.684 183.192 219.684 183.192Z" fill="#656380"/>
<path opacity="0.2" d="M229.717 186.922C226.294 186.95 221.76 186.374 220.848 185.826C220.155 185.404 219.876 183.883 219.786 183.181H219.684C219.684 183.181 219.876 185.629 220.78 186.196C221.683 186.763 226.223 187.314 229.648 187.292C230.637 187.292 230.979 186.93 230.96 186.41C230.831 186.719 230.453 186.917 229.717 186.922Z" fill="black"/>
<path d="M53.231 176.478C51.2432 172.795 53.5048 168.284 56.0896 165.001C58.6743 161.718 61.8396 158.303 61.7711 154.119C61.6725 148.106 55.2983 144.557 50.2055 141.37C46.4263 139.005 42.9402 136.2 39.8199 133.014C38.5686 131.735 37.3556 130.37 36.6273 128.736C35.5759 126.385 35.6033 123.713 35.6717 121.137C35.8908 112.55 36.3143 103.98 36.9422 95.426" stroke="#3F3D56" stroke-width="4" stroke-miterlimit="10"/>
<path d="M27.2576 94.9574C27.3326 93.3887 27.8001 91.864 28.6173 90.5232C29.4344 89.1825 30.575 88.0687 31.9343 87.2841L34.0316 91.4359L33.9687 86.4098C35.8741 85.8479 37.9086 85.9066 39.7786 86.5774C41.6485 87.2483 43.257 88.4965 44.3719 90.142C45.4867 91.7875 46.0503 93.7451 45.9811 95.732C45.9119 97.719 45.2135 99.6325 43.9869 101.196C42.7603 102.76 41.0688 103.893 39.1568 104.432C37.2447 104.971 35.211 104.888 33.3493 104.194C31.4876 103.501 29.8943 102.233 28.7993 100.575C27.7044 98.9158 27.1645 96.9516 27.2576 94.9656V94.9574Z" fill="#57B793"/>
<path d="M43.9654 158.416C44.9074 160.253 46.4292 161.728 48.2945 162.61C50.1598 163.493 52.2641 163.734 54.2805 163.297C56.297 162.859 58.1126 161.768 59.4454 160.191C60.7781 158.615 61.5534 156.642 61.6507 154.579C61.7161 153.282 61.5081 151.986 61.0401 150.775C60.356 148.999 59.1481 147.473 57.5767 146.401C56.0054 145.328 54.1452 144.76 52.2433 144.771C50.3413 144.782 48.4878 145.372 46.929 146.462C45.3702 147.553 44.1799 149.093 43.5164 150.877L49.3677 155.64L42.9304 154.141C42.9278 155.628 43.2828 157.094 43.9654 158.416Z" fill="#57B793"/>
<path d="M48.5901 140.214C50.8872 140.319 53.1427 139.575 54.9273 138.123C56.7118 136.672 57.9007 134.614 58.2677 132.342C58.6347 130.07 58.154 127.742 56.9173 125.802C55.6806 123.861 53.7741 122.444 51.5609 121.819L51.6102 125.681L49.5019 121.48H49.4772C46.9948 121.364 44.568 122.24 42.7307 123.914C40.8934 125.589 39.7962 127.926 39.6804 130.411C39.5645 132.895 40.4396 135.324 42.1131 137.163C43.7865 139.002 46.1213 140.1 48.6038 140.216L48.5901 140.214Z" fill="#57B793"/>
<path d="M25.8476 125.067C27.298 125.138 28.745 124.87 30.0743 124.285C31.4037 123.7 32.579 122.814 33.5075 121.697C34.4361 120.579 35.0924 119.261 35.4247 117.846C35.7569 116.431 35.7561 114.958 35.4222 113.544C35.0884 112.13 34.4306 110.812 33.5008 109.696C32.571 108.579 31.3947 107.694 30.0647 107.111C28.7347 106.528 27.2874 106.262 25.8371 106.334C24.3867 106.406 22.9731 106.815 21.7076 107.528L23.3505 112.069L19.958 108.789C19.0511 109.615 18.3158 110.611 17.7943 111.722C17.2728 112.833 16.9753 114.036 16.9187 115.262C16.8752 116.129 16.9554 116.998 17.1569 117.843C17.6226 119.83 18.7233 121.61 20.2917 122.914C21.8602 124.218 23.8109 124.974 25.8476 125.067Z" fill="#57B793"/>
<path opacity="0.1" d="M28.5171 97.4567C30.6802 97.6951 32.7831 98.3665 34.9516 98.5008C37.1202 98.6351 39.505 98.1171 40.8768 96.429C41.6161 95.5192 41.9857 94.3682 42.61 93.3761C43.2016 92.4518 44.0124 91.6882 44.9703 91.1536C45.5667 92.342 45.9038 93.6437 45.9592 94.9724C46.0146 96.3011 45.787 97.6265 45.2915 98.8604C44.796 100.094 44.044 101.209 43.0853 102.13C42.1266 103.05 40.9832 103.757 39.731 104.201C38.4788 104.646 37.1464 104.819 35.8222 104.709C34.4981 104.599 33.2124 104.208 32.0507 103.563C30.8889 102.918 29.8775 102.032 29.0837 100.966C28.29 99.8993 27.7319 98.6761 27.4465 97.3772C27.8107 97.3937 28.1666 97.4183 28.5171 97.4567Z" fill="black"/>
<path opacity="0.1" d="M25.8474 125.067C27.4619 125.141 29.0682 124.797 30.5104 124.067C31.9527 123.337 33.1818 122.246 34.0786 120.9C34.9755 119.555 35.5095 118 35.6288 116.387C35.7482 114.773 35.4489 113.157 34.7599 111.693C34.016 112.194 33.3763 112.834 32.8761 113.579C32.208 114.587 31.8055 115.752 31.0197 116.678C29.5603 118.394 27.0686 118.956 24.807 118.854C22.5453 118.753 20.3631 118.106 18.1124 117.901C17.8002 117.873 17.4826 117.851 17.1677 117.843C17.6329 119.828 18.7319 121.607 20.2982 122.911C21.8645 124.214 23.8126 124.971 25.8474 125.067Z" fill="black"/>
<path opacity="0.1" d="M48.59 140.214C50.1887 140.289 51.78 139.953 53.212 139.237C54.6441 138.522 55.8692 137.451 56.7703 136.128C57.6715 134.804 58.2188 133.271 58.3599 131.675C58.501 130.08 58.2312 128.474 57.5763 127.013C56.8048 127.526 56.1339 128.176 55.5967 128.931C54.8684 129.959 54.4138 131.143 53.5623 132.091C51.9824 133.853 49.3265 134.475 46.9307 134.417C44.6115 134.368 42.3772 133.798 40.0718 133.62C40.6426 135.462 41.7665 137.083 43.2907 138.263C44.8149 139.443 46.6652 140.124 48.59 140.214Z" fill="black"/>
<path opacity="0.1" d="M43.9653 158.416C44.9073 160.253 46.4291 161.728 48.2944 162.61C50.1597 163.493 52.264 163.734 54.2804 163.297C56.2969 162.859 58.1125 161.768 59.4452 160.191C60.778 158.615 61.5533 156.642 61.6506 154.579C61.716 153.282 61.508 151.986 61.04 150.775C60.2692 151.282 59.5772 151.9 58.9864 152.609C58.0966 153.705 57.5079 154.927 56.4784 155.941C54.5617 157.821 51.4704 158.599 48.7186 158.682C47.1304 158.687 45.5431 158.598 43.9653 158.416Z" fill="black"/>
<path d="M118.072 181.954L81.9289 189.353L81.1074 189.271L49.3457 186.064V145.779L88.2264 139.202L116.429 142.491L116.437 142.669L116.44 142.757L118.072 181.954Z" fill="#6C63FF"/>
<path opacity="0.1" d="M118.072 181.954L81.9288 189.353L81.1074 189.271V147.972L116.437 142.669L118.072 181.954Z" fill="black"/>
<path opacity="0.05" d="M116.44 142.757L116.429 142.765L81.1074 147.972L49.3457 145.779L88.2265 139.202L116.429 142.491L116.437 142.669L116.44 142.757Z" fill="black"/>
<path d="M157.774 183.598L121.631 190.997L120.81 190.915L89.0479 187.709V147.424L127.929 140.847L156.131 144.135L156.139 144.313L156.142 144.401L157.774 183.598Z" fill="#3F3D56"/>
<path opacity="0.1" d="M157.774 183.598L121.631 190.997L120.81 190.915V149.616L156.139 144.313L157.774 183.598Z" fill="black"/>
<path opacity="0.05" d="M156.142 144.401L156.131 144.409L120.81 149.616L89.0479 147.424L127.929 140.847L156.131 144.135L156.139 144.313L156.142 144.401Z" fill="black"/>
<path d="M132.857 144.135L96.7145 151.534L95.8931 151.452L64.1313 148.246V107.961L103.012 101.384L131.214 104.672L131.223 104.85L131.225 104.938L132.857 144.135Z" fill="#3F3D56"/>
<path opacity="0.1" d="M132.857 144.135L96.7145 151.534L95.8931 151.452V110.153L131.223 104.85L132.857 144.135Z" fill="black"/>
<path opacity="0.05" d="M131.225 104.938L131.214 104.946L95.8931 110.153L64.1313 107.961L103.012 101.384L131.214 104.672L131.223 104.85L131.225 104.938Z" fill="black"/>
<path d="M153.393 145.823L134.53 149.687L134.1 149.644L117.524 147.969V126.944L137.816 123.51L152.536 125.229L152.541 125.322V125.366L153.393 145.823Z" fill="#3F3D56"/>
<path opacity="0.1" d="M153.393 145.823L134.53 149.687L134.1 149.643V128.09L152.541 125.322L153.393 145.823Z" fill="black"/>
<path opacity="0.05" d="M152.541 125.366L152.536 125.371L134.1 128.09L117.524 126.944L137.816 123.51L152.536 125.229L152.541 125.322V125.366Z" fill="black"/>
<path d="M102.738 104.99L83.8756 108.852L83.4457 108.81L66.8694 107.136V86.1112L87.1613 82.6773L101.881 84.3956L101.887 84.4888V84.5326L102.738 104.99Z" fill="#3F3D56"/>
<path opacity="0.1" d="M102.738 104.99L83.8757 108.852L83.4458 108.81V87.2566L101.887 84.4887L102.738 104.99Z" fill="black"/>
<path opacity="0.05" d="M101.887 84.5326L101.881 84.5381L83.4457 87.2567L66.8694 86.1111L87.1613 82.6773L101.881 84.3956L101.887 84.4888V84.5326Z" fill="black"/>
<path d="M135.869 104.168L117.006 108.029L116.577 107.988L100 106.314V85.289L120.292 81.8552L135.012 83.5735L135.018 83.6666V83.7105L135.869 104.168Z" fill="#6C63FF"/>
<path opacity="0.1" d="M135.869 104.168L117.006 108.029L116.576 107.988V86.4345L135.017 83.6666L135.869 104.168Z" fill="black"/>
<path opacity="0.05" d="M135.018 83.7105L135.012 83.716L116.577 86.4345L100 85.289L120.292 81.8552L135.012 83.5735L135.018 83.6666V83.7105Z" fill="black"/>
<path d="M145.726 83.0665L126.864 86.9278L126.434 86.8867L109.857 85.2123V64.1874L130.149 60.7536L144.869 62.4718L144.875 62.565V62.6089L145.726 83.0665Z" fill="#3F3D56"/>
<path opacity="0.1" d="M145.726 83.0664L126.863 86.9278L126.434 86.8867V65.3328L144.875 62.565L145.726 83.0664Z" fill="black"/>
<path opacity="0.05" d="M144.875 62.6089L144.869 62.6143L126.434 65.3329L109.857 64.1874L130.149 60.7536L144.869 62.4718L144.875 62.565V62.6089Z" fill="black"/>
<path d="M158.573 40.0849C158.373 41.8662 157.015 43.3022 156.511 45.0177C155.756 47.6075 157.059 50.3891 158.855 52.417C160.303 54.0284 162.055 55.3362 164.012 56.2648C165.968 57.1934 168.088 57.7243 170.251 57.8267C170.886 57.8814 171.526 57.8116 172.135 57.6212C172.677 57.4004 173.165 57.0659 173.567 56.6401C174.914 55.2835 175.64 53.4063 175.927 51.5127C176.215 49.619 176.105 47.6924 175.993 45.7823C175.993 45.387 175.92 44.9951 175.779 44.6259C175.596 44.2747 175.344 43.9643 175.037 43.7133C174.066 42.82 172.996 42.0412 171.847 41.3921C171.355 41.118 170.826 40.844 170.511 40.3699C170.295 39.9924 170.155 39.5763 170.098 39.1449L169.745 37.3472C169.682 36.8288 169.505 36.3308 169.227 35.8892C168.605 35.0506 167.414 34.9355 166.371 34.8944L162.538 34.7437C161.347 34.6971 159.781 34.3546 158.617 34.5902C157.522 34.8067 157.891 35.8098 158.089 36.7196C158.374 37.82 158.536 38.9487 158.573 40.0849Z" fill="#FFC0C6"/>
<path opacity="0.1" d="M158.573 40.0849C158.373 41.8662 157.015 43.3022 156.511 45.0177C155.756 47.6075 157.059 50.3891 158.855 52.417C160.303 54.0284 162.055 55.3362 164.012 56.2648C165.968 57.1934 168.088 57.7243 170.251 57.8267C170.886 57.8814 171.526 57.8116 172.135 57.6212C172.677 57.4004 173.165 57.0659 173.567 56.6401C174.914 55.2835 175.64 53.4063 175.927 51.5127C176.215 49.619 176.105 47.6924 175.993 45.7823C175.993 45.387 175.92 44.9951 175.779 44.6259C175.596 44.2747 175.344 43.9643 175.037 43.7133C174.066 42.82 172.996 42.0412 171.847 41.3921C171.355 41.118 170.826 40.844 170.511 40.3699C170.295 39.9924 170.155 39.5763 170.098 39.1449L169.745 37.3472C169.682 36.8288 169.505 36.3308 169.227 35.8892C168.605 35.0506 167.414 34.9355 166.371 34.8944L162.538 34.7437C161.347 34.6971 159.781 34.3546 158.617 34.5902C157.522 34.8067 157.891 35.8098 158.089 36.7196C158.374 37.82 158.536 38.9487 158.573 40.0849Z" fill="black"/>
<path d="M182.917 120.315L181.291 138.161C180.867 142.842 180.434 147.542 179.602 152.162C179.328 153.754 178.977 155.338 178.578 156.908C177.466 161.269 175.853 165.53 175.333 170C175.317 170.129 175.303 170.274 175.289 170.392C175.182 171.378 175.089 172.376 174.742 173.297C174.468 173.979 174.082 174.601 173.8 175.275C173.252 176.623 173.164 178.114 173.096 179.575C171.122 178.46 168.961 177.717 166.719 177.383C165.624 177.221 164.433 177.109 163.707 176.286C162.886 175.393 162.982 174.025 163.118 172.825C163.549 169.098 163.978 165.373 164.405 161.65C164.548 160.047 164.822 158.46 165.227 156.903C165.375 156.385 165.553 155.875 165.733 155.366C165.982 154.664 166.234 153.962 166.423 153.242C166.685 152.084 166.866 150.909 166.965 149.726C167.406 145.977 167.937 142.236 168.403 138.49L168.428 138.292C169.126 132.614 169.657 126.909 169.504 121.189C169.482 120.342 169.446 119.496 169.391 118.646C169.315 117.416 169.202 116.763 170.213 115.993C171.338 115.144 172.819 114.549 174.106 113.993C174.799 113.691 182.427 110.978 182.594 111.576C182.949 112.845 183.133 114.155 183.142 115.473C183.157 117.09 183.082 118.706 182.917 120.315Z" fill="#605D82"/>
<path opacity="0.1" d="M179.602 152.162C179.328 153.754 178.977 155.338 178.578 156.908C177.466 161.269 175.853 165.53 175.333 170C175.316 170.129 175.303 170.274 175.289 170.392C171.888 165.53 169.024 160.301 165.706 155.388C165.955 154.686 166.207 153.984 166.396 153.264C166.668 152.099 166.858 150.917 166.965 149.726C167.406 145.977 167.937 142.236 168.403 138.49L168.427 138.292C168.62 139.087 168.895 139.86 169.249 140.597C171.478 145.13 176.773 147.421 179.363 151.759C179.449 151.894 179.529 152.029 179.602 152.162Z" fill="black"/>
<path d="M152.007 112.31C152.12 115.944 152.7 119.548 153.281 123.138L154.477 130.537C155.132 134.593 155.816 138.728 157.733 142.359C159.167 145.078 161.232 147.396 163.102 149.833C167.697 155.823 171.149 162.611 175.506 168.777C176.773 170.57 178.583 172.51 180.744 172.135C182.162 171.891 183.191 170.707 184.303 169.797C185.617 168.723 187.2 167.936 188.235 166.588C189.27 165.24 189.473 163.003 188.071 162.044C187.591 161.718 187.008 161.595 186.466 161.386C184.295 160.564 182.887 158.438 181.995 156.289C181.102 154.141 180.557 151.836 179.366 149.838C176.776 145.5 171.478 143.209 169.249 138.673C168.001 136.136 167.88 133.192 167.787 130.378L167.543 123.168C167.516 122.379 167.497 121.559 167.817 120.838C168.669 118.92 171.242 118.739 173.329 118.495C175.695 118.219 177.987 117.495 180.084 116.363C181.286 115.714 182.458 114.886 183.096 113.68C183.681 112.584 183.761 111.293 183.829 110.049L184.552 96.9798C184.615 95.8563 184.67 94.6916 184.278 93.6392C183.284 90.9919 179.944 90.1259 177.121 90.252C171.869 90.4877 167.023 92.7486 162.062 94.2777C160.832 94.6559 159.597 94.9957 158.33 95.2506C157.234 95.4726 155.865 95.3822 154.814 95.7384C152.93 96.3742 152.977 100.501 152.711 102.211C152.163 105.548 151.927 108.929 152.007 112.31Z" fill="#605D82"/>
<path d="M180.032 172.688C180.494 173.157 180.645 173.842 180.765 174.489C181.435 178.078 181.783 181.72 181.806 185.371C181.776 185.712 181.843 186.054 182 186.358C182.131 186.538 182.308 186.68 182.512 186.769C183.851 187.407 185.404 186.517 186.521 185.538C188.588 183.727 190.338 181.293 190.455 178.545C190.486 177.837 190.406 177.122 190.529 176.423C190.71 175.388 191.315 174.486 191.846 173.582C192.755 172.04 193.49 170.402 194.037 168.698C194.239 168.057 194.376 167.251 193.873 166.804C193.696 166.664 193.494 166.559 193.278 166.495L187.227 164.247C186.701 164.053 185.398 167.404 185.193 167.772C184.686 168.668 184.182 169.175 183.167 169.383C182.151 169.591 180.897 169.29 179.927 169.808C178.285 170.682 179.103 171.754 180.032 172.688Z" fill="#535070"/>
<path d="M170.7 174.757C170.588 174.533 170.432 174.335 170.24 174.173C169.961 173.995 169.642 173.887 169.312 173.858C168.162 173.661 166.799 173.532 166.002 174.39C165.257 175.193 165.386 176.5 164.764 177.404C164.567 177.679 164.299 177.925 164.129 178.227C163.918 178.688 163.824 179.194 163.855 179.701C163.822 181.096 163.789 182.496 163.888 183.888C163.967 185.056 164.162 186.281 164.893 187.196C166.065 188.665 168.179 188.876 170.051 188.969L171.571 189.049C171.989 189.098 172.412 189.058 172.814 188.934C173.063 188.819 173.287 188.655 173.471 188.452C173.655 188.249 173.797 188.011 173.887 187.752C174.679 185.785 173.427 183.666 172.655 181.693C171.765 179.421 171.924 176.903 170.7 174.757Z" fill="#535070"/>
<path d="M158.135 30.0411C158.116 29.8416 158.145 29.6404 158.22 29.4546C158.442 29.0627 159.022 29.1805 159.46 29.2792C161.221 29.7232 163.077 29.3203 164.893 29.4244C166.708 29.5286 168.751 30.4357 169.115 32.217C170.432 31.2841 171.567 30.1175 172.464 28.775C172.967 28.0213 173.405 27.1581 173.337 26.2537C173.238 24.9493 172.146 23.9736 171.147 23.146L168.135 20.6796C167.738 20.3153 167.28 20.024 166.782 19.8191C166.087 19.5807 165.325 19.6958 164.592 19.6958C162.401 19.6958 160.052 18.6955 158.1 19.6958C157.278 20.1151 156.668 20.8358 156.076 21.5374L153.385 24.7273C153.181 24.9306 153.032 25.1824 152.952 25.459C152.875 25.8481 153.075 26.2318 153.146 26.6237C153.272 27.3362 152.966 28.0981 153.201 28.7832C153.593 29.9177 154.973 30.0794 155.816 30.7317C156.128 30.9728 156.621 31.7977 156.996 31.7867C157.656 31.773 158.116 30.5672 158.135 30.0411Z" fill="#3F3D56"/>
<path d="M162.702 39.4491C167.466 39.4491 171.327 35.5842 171.327 30.8166C171.327 26.049 167.466 22.1841 162.702 22.1841C157.939 22.1841 154.077 26.049 154.077 30.8166C154.077 35.5842 157.939 39.4491 162.702 39.4491Z" fill="#FFC0C6"/>
<path d="M164.723 49.7067C164.431 48.87 163.881 48.1479 163.152 47.6445C162.423 47.1411 161.553 46.8824 160.668 46.9059C160.414 46.9544 160.151 46.9208 159.918 46.81C159.785 46.7088 159.679 46.5772 159.608 46.4263C159.085 45.4816 158.664 44.4839 158.351 43.4502C158.215 42.9925 158.026 42.4527 157.563 42.3348C157.191 42.2389 156.81 42.4801 156.561 42.7733C156.34 43.088 156.1 43.389 155.843 43.6749C154.748 44.645 152.831 43.7599 151.684 44.6505C151.495 44.7958 151.339 44.9821 151.137 45.1164C150.939 45.2366 150.727 45.3289 150.504 45.3905C148.277 46.1156 146.094 46.9693 143.966 47.9473C144.732 52.5623 145.515 57.2649 147.312 61.5812C148.166 63.6365 149.132 65.6508 149.817 67.7691C151.334 72.4636 151.399 77.4869 151.419 82.4225C151.419 85.7987 151.419 89.2462 150.323 92.4416C150.077 93.1651 149.776 93.8831 149.707 94.634C149.639 95.3849 149.863 96.2344 150.479 96.6839C150.836 96.9193 151.245 97.0633 151.671 97.1032C153.563 97.3772 155.468 96.8784 157.33 96.4454C162.322 95.289 167.415 94.6258 172.494 93.979L181.009 92.8828C181.62 92.8401 182.218 92.6849 182.772 92.4252C184.33 91.5729 184.478 89.227 183.509 87.7362C183.046 87.021 182.392 86.4345 182 85.6781C181.609 84.9218 181.579 83.8585 182.249 83.335C183.618 82.2662 183.208 80.2849 183.273 78.5529C183.456 73.7078 183.431 68.8663 183.2 64.0284C183.13 63.0251 183.113 62.0189 183.15 61.0139C183.246 59.3093 183.668 57.6404 184.089 55.9824L186.677 45.7878C186.001 44.719 184.705 44.0394 183.482 43.7325C182.258 43.4255 180.979 43.3351 179.771 42.9597C177.307 42.1923 175.095 40.2466 172.513 40.4275C172.317 40.4309 172.124 40.4777 171.949 40.5645C171.368 40.8961 171.459 41.7347 171.423 42.4033C171.341 43.8859 170.251 45.1219 169.052 45.9906C167.853 46.8593 166.478 47.4896 165.375 48.479C165.183 48.6235 165.025 48.8084 164.913 49.0205C164.8 49.2326 164.735 49.4668 164.723 49.7067Z" fill="#3F3D56"/>
<path d="M130.549 59.3778C129.978 59.7495 129.371 60.0626 128.737 60.3123C128.134 60.5508 127.491 60.7398 126.998 61.1564C126.754 61.3683 126.549 61.6215 126.393 61.9045C126.101 62.4227 125.953 63.0098 125.966 63.6045C125.978 64.1992 126.149 64.7798 126.462 65.2856C126.774 65.7915 127.217 66.2041 127.743 66.4804C128.27 66.7567 128.86 66.8866 129.454 66.8566C130.245 66.8155 130.993 66.4948 131.718 66.1797L137.802 63.5296C138.832 63.0829 139.943 62.5623 140.431 61.5483C140.487 61.4533 140.508 61.342 140.491 61.2331C140.444 61.1137 140.354 61.016 140.239 60.9591C138.868 60.0663 137.669 58.9338 136.699 57.6157C136.45 57.2759 136.151 56.4757 135.79 56.2701C134.503 55.5549 131.581 58.7092 130.549 59.3778Z" fill="#FFC0C6"/>
<path d="M195.584 57.2265L197.827 59.7916C198.308 60.3397 198.79 60.8878 199.228 61.4797C200.306 62.9658 201.171 64.5958 201.797 66.3222C202.284 67.602 202.689 68.9667 202.52 70.326C202.406 71.0229 202.218 71.7055 201.958 72.3622C201.547 73.6246 201.037 74.8525 200.433 76.0344C199.928 76.9312 199.358 77.7895 198.727 78.6022C196.99 80.9057 195.09 83.0809 193.04 85.1109C192.274 85.87 191.945 87.1004 191.619 88.1254C191.003 90.019 189.538 91.4962 188.123 92.8938C187.667 93.3755 187.164 93.809 186.62 94.1873C185.805 94.7136 184.851 94.9846 183.881 94.9656C183.458 94.968 183.039 94.8812 182.652 94.7107C181.683 94.2503 181.19 93.1295 181.089 92.0607C180.999 91.0895 181.161 90.1117 181.56 89.2216C182.846 86.3687 186.151 85.1328 188.487 83.05C189.856 81.8305 190.905 80.2958 191.94 78.7804C192.641 77.8331 193.226 76.8055 193.684 75.7193C194.204 74.3244 194.001 72.6746 194.459 71.2605C194.65 70.6603 195.006 70.1205 195.201 69.5258C195.395 68.9311 195.461 68.2268 195.097 67.7143C194.824 67.3867 194.475 67.1308 194.081 66.9689C192.589 66.2125 190.918 65.2369 190.634 63.5844C190.52 62.6693 190.758 61.7451 191.302 61.0002C191.842 60.2647 192.474 59.6016 193.183 59.027C193.832 58.4406 194.93 57.7911 195.584 57.2265Z" fill="#FFC0C6"/>
<path d="M129.109 62.9569C128.715 62.1567 128.219 61.34 127.419 60.9426C127.03 60.7746 126.611 60.688 126.187 60.688C125.764 60.688 125.344 60.7746 124.955 60.9426C124.18 61.2779 123.455 61.7167 122.798 62.2471L120.864 63.6749C120.426 63.9627 120.039 64.3211 119.717 64.7355C119.411 65.2382 119.208 65.7973 119.12 66.3797C118.847 67.7143 118.625 69.0873 118.816 70.4384C119.123 72.6307 120.437 74.5272 121.883 76.1934C122.787 77.2293 123.904 78.2761 125.278 78.3227C125.872 78.3419 126.532 78.1062 126.779 77.5663C126.865 77.3518 126.91 77.1233 126.913 76.8922C127.061 74.4586 126.19 72.0827 125.177 69.8656C124.903 69.2627 124.607 68.6379 124.629 67.9774C124.621 67.8653 124.65 67.7535 124.711 67.6595C124.798 67.5684 124.915 67.5111 125.04 67.4978C126.428 67.2238 128.821 68.3035 129.793 66.7607C130.423 65.7412 129.558 63.864 129.109 62.9569Z" fill="#FFC0C6"/>
<path d="M157.681 27.3252C157.663 27.1256 157.693 26.9247 157.768 26.7388C157.99 26.3442 158.57 26.4647 159.009 26.5634C160.769 27.0074 162.626 26.6045 164.441 26.7086C166.256 26.8128 168.296 27.7199 168.663 29.5012C169.979 28.5668 171.113 27.4004 172.012 26.0591C172.515 25.3028 172.954 24.4395 172.885 23.5352C172.787 22.2307 171.691 21.2551 170.695 20.4302L167.683 17.9638C167.287 17.5996 166.83 17.3083 166.333 17.1033C165.635 16.8649 164.876 16.98 164.142 16.98C161.952 16.98 159.603 15.9797 157.65 16.98C156.829 17.3993 156.218 18.12 155.627 18.8216L152.933 22.0115C152.73 22.2153 152.582 22.4669 152.503 22.7432C152.426 23.1323 152.626 23.516 152.697 23.9079C152.823 24.6204 152.517 25.3822 152.752 26.0646C153.144 27.2019 154.524 27.3636 155.367 28.0158C155.679 28.257 156.172 29.0819 156.547 29.0709C157.196 29.0572 157.656 27.8514 157.681 27.3252Z" fill="#3F3D56"/>
<path d="M139.363 50.981C139.015 51.2069 138.709 51.4916 138.459 51.8223C138.144 52.3019 138.079 52.9185 137.808 53.4118C137.227 54.4915 135.866 54.878 135.02 55.7631C134.883 55.8841 134.787 56.0452 134.746 56.2235C134.741 56.4646 134.822 56.6996 134.974 56.8867L139.064 63.3213C140.433 63.4419 141.731 62.5869 143.095 62.702C143.601 62.7431 144.124 62.9185 144.612 62.7678C144.96 62.6125 145.287 62.4126 145.584 62.1731C146.405 61.6579 147.478 61.5976 148.16 60.9207C148.842 60.2438 148.899 59.249 148.891 58.3255C148.904 57.5239 148.822 56.7237 148.648 55.9413C148.045 53.4748 146.159 51.5729 144.976 49.3861C144.398 48.32 144.086 47.6979 142.867 48.4296C141.649 49.1613 140.515 50.1369 139.363 50.981Z" fill="#3F3D56"/>
<path d="M189.034 47.7281C189.803 48.2277 190.497 48.8349 191.093 49.5313C191.715 50.3343 192.068 51.3208 192.668 52.143C193.267 52.9651 194.037 53.5571 194.694 54.2915C195.693 55.4041 196.37 56.7579 197.032 58.1035C195.41 60.2159 193.643 62.2121 191.742 64.0777C191.53 64.3272 191.251 64.51 190.937 64.6039C190.725 64.6268 190.51 64.5964 190.312 64.5156C190.114 64.4347 189.94 64.3059 189.804 64.1408C189.508 63.8338 189.3 63.4502 189.018 63.1295C188.354 62.4437 187.468 62.0155 186.518 61.921C185.576 61.8292 184.628 61.8154 183.684 61.8799C183.477 61.9045 183.267 61.8693 183.079 61.7785C182.939 61.6824 182.826 61.5522 182.75 61.4003C181.655 59.5148 181.998 57.1471 182.389 54.9931L183.284 50.0602C183.415 49.1184 183.666 48.1974 184.032 47.3197C184.371 46.5935 185.127 45.3603 186.064 45.5795C187 45.7988 188.243 47.158 189.034 47.7281Z" fill="#3F3D56"/>
<path d="M110.953 83.8886L92.09 87.75L91.6601 87.7088L75.0837 86.0344V65.0095L95.3757 61.5757L110.096 63.294L110.101 63.3872V63.431L110.953 83.8886Z" fill="#6C63FF"/>
<path opacity="0.1" d="M110.953 83.8886L92.09 87.7499L91.6602 87.7088V66.155L110.101 63.3871L110.953 83.8886Z" fill="black"/>
<path opacity="0.05" d="M110.101 63.431L110.096 63.4365L91.6601 66.155L75.0837 65.0095L95.3757 61.5757L110.096 63.294L110.101 63.3872V63.431Z" fill="black"/>
<path d="M120.81 63.061L101.947 66.9251L101.517 66.8812L84.9407 65.2068V44.1819L105.233 40.7481L119.953 42.4664L119.958 42.5595V42.6034L120.81 63.061Z" fill="#3F3D56"/>
<path opacity="0.1" d="M120.81 63.061L101.947 66.9251L101.517 66.8812V45.3274L119.958 42.5595L120.81 63.061Z" fill="black"/>
<path opacity="0.05" d="M119.958 42.6034L119.953 42.6089L101.517 45.3274L84.9407 44.1819L105.233 40.7481L119.953 42.4664L119.958 42.5595V42.6034Z" fill="black"/>
</g>
<defs>
<clipPath id="clip0">
<rect width="260" height="192.833" fill="white"/>
</clipPath>
</defs>
</svg>
